<svg xmlns="http://www.w3.org/2000/svg" viewBox="0 0 800 600" width="800" height="600"><!-- PLACEHOLDER artwork: shown when a photo is missing or fails to load. Replace real photos via the CMS. --><rect width="800" height="600" fill="#EFEDE6"/><g transform="translate(330.0 230.0) scale(5.833)" fill="none" stroke="#A3ACA7" stroke-width="0.41" stroke-linecap="round" stroke-linejoin="round"><path d="M11.017 2.814a1 1 0 0 1 1.966 0l1.051 5.558a2 2 0 0 0 1.594 1.594l5.558 1.051a1 1 0 0 1 0 1.966l-5.558 1.051a2 2 0 0 0-1.594 1.594l-1.051 5.558a1 1 0 0 1-1.966 0l-1.051-5.558a2 2 0 0 0-1.594-1.594l-5.558-1.051a1 1 0 0 1 0-1.966l5.558-1.051a2 2 0 0 0 1.594-1.594z"/><path d="M20 2v4"/><path d="M22 4h-4"/><circle cx="4" cy="20" r="2"/></g></svg>
